<svg width="1440" height="878" viewBox="0 0 1440 878" fill="none" xmlns="http://www.w3.org/2000/svg">
<rect width="1440" height="874" fill="#F8FFF8"/>
<path d="M0 722L24 729.8C48 737.6 96 753.2 144 761C192 768.8 240 768.8 288 774.014C336 779.063 384 789.737 432 797.414C480 805.337 528 810.263 576 815.6C624 820.937 672 825.863 720 818.186C768 810.263 816 789.737 864 776.6C912 763.463 960 758.537 1008 768.8C1056 779.063 1104 805.337 1152 815.6C1200 825.863 1248 820.937 1296 818.186C1344 815.6 1392 815.6 1440 818.186C1488 820.937 1536 825.863 1584 833.786C1632 841.463 1680 852.137 1728 854.6C1776 857.063 1824 852.137 1872 841.586C1920 831.2 1968 815.6 2016 818.186C2064 820.937 2112 841.463 2160 852.014C2208 862.4 2256 862.4 2304 844.214C2352 825.863 2400 789.737 2448 776.6C2496 763.463 2544 774.137 2592 781.814C2640 789.737 2688 794.663 2736 807.8C2784 820.937 2832 841.463 2880 828.614C2928 815.6 2976 768.8 3024 758.414C3072 747.863 3120 774.137 3168 781.814C3216 789.737 3264 779.063 3312 779.186C3360 779.063 3408 789.737 3432 794.786L3456 800V878H3432C3408 878 3360 878 3312 878C3264 878 3216 878 3168 878C3120 878 3072 878 3024 878C2976 878 2928 878 2880 878C2832 878 2784 878 2736 878C2688 878 2640 878 2592 878C2544 878 2496 878 2448 878C2400 878 2352 878 2304 878C2256 878 2208 878 2160 878C2112 878 2064 878 2016 878C1968 878 1920 878 1872 878C1824 878 1776 878 1728 878C1680 878 1632 878 1584 878C1536 878 1488 878 1440 878C1392 878 1344 878 1296 878C1248 878 1200 878 1152 878C1104 878 1056 878 1008 878C960 878 912 878 864 878C816 878 768 878 720 878C672 878 624 878 576 878C528 878 480 878 432 878C384 878 336 878 288 878C240 878 192 878 144 878C96 878 48 878 24 878H0V722Z" fill="url(#paint0_linear)"/>
<defs>
<linearGradient id="paint0_linear" x1="0" y1="878" x2="0" y2="722" gradientUnits="userSpaceOnUse">
<stop stop-color="#A5CC82"/>
<stop offset="1" stop-color="#F8FFF8"/>
</linearGradient>
</defs>
</svg>
